PathFileType	4	(X/Y/Z)	Patient4_TMGait_0pt7_01_left_21.trc.trc
DataRate	CameraRate	NumFrames	NumMarkers	Units	OrigDataRate	OrigDataStartFrame	OrigNumFrames
82.840236686390	82.840236686390	4	33	mm	82.840236686390	18	       141
Frame#	Time	Sacral			L.Shoulder			Chest			R.Shoulder			Neck			R.ASIS			L.ASIS			R.Thigh.Superior			R.Thigh.Lateral			R.Thigh.Inferior			R.Patella			L.Thigh.Superior			L.Thigh.Lateral			L.Thigh.Inferior			L.Patella			L.Shank.Superior			L.Shank.Lateral			L.Shank.Inferior			R.Shank.Superior			R.Shank.Lateral			R.Shank.Inferior			R.Heel			R.Midfoot.Superior			R.Midfoot.Lateral			R.Toe			L.Heel			L.Midfoot.Lateral			L.Midfoot.Superior			L.Toe			L.Elbow			L.Wrist			R.Elbow			R.Wrist			
		X1	Y1	Z1	X2	Y2	Z2	X3	Y3	Z3	X4	Y4	Z4	X5	Y5	Z5	X6	Y6	Z6	X7	Y7	Z7	X8	Y8	Z8	X9	Y9	Z9	X10	Y10	Z10	X11	Y11	Z11	X12	Y12	Z12	X13	Y13	Z13	X14	Y14	Z14	X15	Y15	Z15	X16	Y16	Z16	X17	Y17	Z17	X18	Y18	Z18	X19	Y19	Z19	X20	Y20	Z20	X21	Y21	Z21	X22	Y22	Z22	X23	Y23	Z23	X24	Y24	Z24	X25	Y25	Z25	X26	Y26	Z26	X27	Y27	Z27	X28	Y28	Z28	X29	Y29	Z29	X30	Y30	Z30	X31	Y31	Z31	X32	Y32	Z32	X33	Y33	Z33	

18	24.295214285714	845.159646969460	1014.170275066317	502.470854415894	1034.002762784106	1425.930475784104	292.350113694890	1153.829605156181	1346.015970388119	436.787827356687	1107.563327467997	1431.673822444359	617.415872300561	1064.188207155409	1485.772410594770	444.956688057541	1076.435003440487	940.505268086654	597.802336736580	1038.539484209664	951.837565558859	324.103302063524	1076.436443066301	730.624593995188	573.248626853163	976.193614672938	635.244875111950	636.673808903584	1036.229495621079	572.203917467350	554.669603044630	1020.980978093704	488.744674876861	559.246461286238	1117.358664169546	783.909099807233	356.571927713073	1081.570783741409	655.468651763846	270.530982478988	1187.611311228156	601.062337742918	332.789491025541	1220.643764025914	538.223443652271	325.839321253854	1206.888398236496	465.298945465040	314.122811009078	1147.090156833624	333.277839077310	260.133641121556	1239.921907693593	237.358531358934	311.572259189192	988.561573460548	403.382936580991	565.004644890792	913.263963213082	302.517989010501	627.122887451534	948.644923024911	206.918412539441	559.176437053015	806.353650526819	43.932609945885	530.151418106292	980.706439431743	96.809483616094	557.732951563564	893.512912066307	36.969781559157	599.386874528522	1101.305595866866	40.938454287157	577.783868084339	1168.002844059300	51.550583674243	345.768879422576	1241.860279553083	62.163857553935	266.093073262592	1307.269087231480	143.948589131468	288.202627056738	1443.054866962092	123.288760333224	262.079182203494	861.638710970446	1116.320098784026	206.577546265130	802.163929835065	864.154197247383	239.252150989627	1268.533405833634	1136.426949647711	721.505306178358	1479.102201307013	1212.899104955181	603.843889282526	
19	24.307285714286	845.278799814099	1012.637336555428	499.941042628634	1032.732121236838	1425.076308596082	290.383747048966	1152.371940878830	1345.648079794796	435.169898668415	1105.078288387293	1431.173397606831	615.388839645827	1061.993892795528	1484.854084217770	443.181332837071	1076.031439166464	939.767697334212	596.319471051944	1039.495009134849	950.185924089522	322.369635117262	1074.522741000669	729.275011140446	572.030029585392	973.345108590699	634.575492332474	635.597919828572	1032.675534536907	570.952103724549	553.680227468246	1016.604848349443	487.405220148651	558.247537958841	1117.705246394165	781.223722040837	355.684682268476	1080.273395260886	652.201642359315	270.991971528613	1186.122957874841	597.537260705942	332.806803528418	1218.206877058640	534.330967675196	326.629739912121	1204.151824312527	461.388285750076	315.134462222851	1143.404691563868	329.511442433554	262.499455563898	1235.913654634203	233.492522386137	314.000287038850	983.339119344887	402.233704313991	564.240769305098	907.153028871323	302.213494094863	626.702407983718	941.287968664901	206.197172555391	558.782163284532	797.770203862762	43.719308853498	530.192804704133	972.020886829076	96.639910653591	557.638437973923	884.907182944028	36.849738242216	599.473825797042	1092.714538985626	40.968930043334	577.827995557258	1162.795464261051	49.453625762702	350.015905087439	1235.960872281127	58.516107899055	269.628234075977	1302.818982634449	138.986129252876	290.869562742638	1437.780177147894	115.931399363829	263.688521599449	856.533805257269	1118.614114433585	204.936779825682	794.507394902002	867.242955921384	240.802990156612	1273.379880931899	1141.483710581205	717.841016117601	1478.970252222720	1228.445931612938	599.539834911362	
20	24.319357142857	845.564221840079	1010.908737316055	497.167527914019	1031.478434819656	1424.099123842377	288.201677707696	1150.914642961571	1345.278104637246	433.415977483990	1102.381076002689	1430.622701697284	613.212609838459	1059.692659119948	1483.848276723029	441.190296851897	1075.775424635150	938.900424125084	594.734453142490	1040.739901396585	948.417999256089	320.566700293444	1073.045824831813	727.819114316773	570.723108608395	971.009819517155	633.716590535623	634.352146612189	1029.755577018373	569.537843476341	552.537656522455	1012.849494010276	485.824237106096	557.033708527739	1118.502451595667	778.416271716549	354.684036710943	1079.255671671664	648.832153604886	271.583032887400	1184.975945023133	593.960127946885	332.923995077260	1215.868632769570	530.048545022740	327.630039719513	1201.154150527514	456.950573213975	316.336581041357	1138.693437910667	325.662460149554	264.862272499371	1230.081197169568	228.938395137534	316.615892479754	978.662710985135	400.854855193663	563.277153373790	901.472742537915	301.812334961751	626.137275381426	934.142755278364	205.336590192725	558.269670531491	789.203236100425	43.507050544082	530.230507789514	963.345859792956	96.461992463062	557.520833807260	876.317489458032	36.736378953235	599.564493374230	1084.132703674704	40.963527008106	577.884533103315	1154.423272654241	47.314909202407	354.169415600026	1226.961269047810	54.529963422877	273.085938714297	1295.803556368179	133.071680532000	293.758077349050	1429.784868647963	106.736003687884	265.466125106979	851.963128559250	1120.555482350505	203.092374407333	788.054791609709	869.830968157197	242.006933252455	1277.331913675086	1146.389640593733	714.478220703298	1477.845518515341	1242.680677878982	595.593125295521	
21	24.331428571429	845.960148910394	1009.031824747495	494.168209260712	1030.275450522296	1423.005184019194	285.801520697339	1149.480731078749	1344.898671632411	431.529458196794	1099.513572825651	1430.033691432171	610.896265612198	1057.341856271166	1482.777690205290	438.963369559373	1075.640824039226	937.910531802250	593.068744044275	1042.218795987809	946.586333239016	318.730035693866	1072.019418397654	726.275536195898	569.344003707354	969.191663609910	632.674122298252	632.915732540366	1027.496149558288	567.970533171008	551.231991269286	1009.747888935222	483.995446902176	555.580616818759	1119.671379999742	775.506184365201	353.597393908239	1078.483932539261	645.468554290817	272.205618597778	1184.100048668752	590.399047295537	333.142983885274	1213.589691936492	525.527152483398	328.818282135114	1197.969523195641	452.186500202437	317.654553661179	1133.287495316265	321.838937250844	267.029296064702	1222.878160938043	223.943535576508	319.272076738552	974.543136309377	399.256477125815	562.084716663033	896.238580047743	301.334921287012	625.407763604067	927.220554922332	204.362381810680	557.627626213279	780.658807993725	43.341716293039	530.264347081019	954.705062163843	96.291753914280	557.382216207372	867.753387035162	36.654356776984	599.657537184392	1075.570443297558	40.909103863759	577.956338137098	1143.640259136989	45.192039336732	357.956634340174	1215.681268588793	50.429036434639	276.265334552924	1286.830017847158	126.597565670249	296.740220675323	1419.771858877063	96.405730458367	267.427157903188	847.985278788759	1122.073160716400	201.022482113351	782.813562189936	871.854576930592	242.799884539000	1280.384561279639	1151.019266819282	711.474631192800	1475.829992688404	1255.539653006666	592.015360904141	
